Serifas_Black.ufo
<glyph name="C" format="2">
  <advance width="765"/>
  <unicode hex="0043"/>
  <outline>
    <contour>
      <point x="646" y="206" type="curve"/>
      <point x="715" y="106" type="line"/>
      <point x="643" y="45"/>
      <point x="543" y="-19"/>
      <point x="412" y="-19" type="curve"/>
      <point x="176" y="-19"/>
      <point x="50" y="91"/>
      <point x="50" y="374" type="curve" smooth="yes"/>
      <point x="50" y="656"/>
      <point x="186" y="768"/>
      <point x="422" y="768" type="curve"/>
      <point x="546" y="768"/>
      <point x="637" y="725"/>
      <point x="687" y="701" type="curve"/>
      <point x="687" y="414" type="line"/>
      <point x="624" y="414" type="line"/>
      <point x="604" y="473"/>
      <point x="561" y="597"/>
      <point x="442" y="597" type="curve"/>
      <point x="332" y="597"/>
      <point x="277" y="552"/>
      <point x="277" y="374" type="curve" smooth="yes"/>
      <point x="277" y="196"/>
      <point x="332" y="142"/>
      <point x="442" y="142" type="curve"/>
      <point x="535" y="142"/>
      <point x="593" y="166"/>
    </contour>
  </outline>
</glyph>
<glyph name="D" format="2">
  <advance width="836"/>
  <unicode hex="0044"/>
  <outline>
    <contour>
      <point x="283" y="142" type="line"/>
      <point x="313" y="112" type="line"/>
      <point x="313" y="627" type="line"/>
      <point x="283" y="597" type="line"/>
      <point x="394" y="597" type="line" smooth="yes"/>
      <point x="504" y="597"/>
      <point x="559" y="552"/>
      <point x="559" y="374" type="curve" smooth="yes"/>
      <point x="559" y="196"/>
      <point x="504" y="142"/>
      <point x="394" y="142" type="curve" smooth="yes"/>
    </contour>
    <contour>
      <point x="394" y="-19" type="line" smooth="yes"/>
      <point x="677" y="-35"/>
      <point x="786" y="65"/>
      <point x="786" y="374" type="curve" smooth="yes"/>
      <point x="786" y="683"/>
      <point x="672" y="783"/>
      <point x="394" y="768" type="curve" smooth="yes"/>
      <point x="50" y="750" type="line"/>
      <point x="50" y="540" type="line"/>
      <point x="170" y="540" type="line"/>
      <point x="113" y="591" type="line"/>
      <point x="113" y="143" type="line"/>
      <point x="158" y="235" type="line"/>
      <point x="50" y="183" type="line"/>
      <point x="50" y="0" type="line"/>
    </contour>
  </outline>
</glyph>
<glyph name="E" format="2">
  <advance width="653"/>
  <unicode hex="0045"/>
  <outline>
    <contour>
      <point x="217" y="308" type="curve"/>
      <point x="217" y="438" type="line"/>
      <point x="303" y="435"/>
      <point x="386" y="429"/>
      <point x="470" y="412" type="curve"/>
      <point x="470" y="337" type="line"/>
      <point x="385.67976" y="319.93519"/>
      <point x="300.32894" y="311.01189"/>
    </contour>
    <contour>
      <point x="7" y="750" type="line"/>
      <point x="604" y="750" type="line"/>
      <point x="604" y="519" type="line"/>
      <point x="500" y="623"/>
      <point x="332" y="613"/>
      <point x="236" y="603" type="curve"/>
      <point x="267" y="682" type="line"/>
      <point x="267" y="70" type="line"/>
      <point x="214" y="142" type="line"/>
      <point x="545" y="142" type="line"/>
      <point x="451" y="67" type="line"/>
      <point x="509" y="250" type="line"/>
      <point x="593" y="250" type="line"/>
      <point x="593" y="0" type="line"/>
      <point x="38" y="0" type="line"/>
      <point x="72" y="51"/>
      <point x="103" y="121"/>
      <point x="103" y="218" type="curve" smooth="yes"/>
      <point x="103" y="629" type="line"/>
      <point x="147" y="583" type="line"/>
      <point x="55" y="588" type="line"/>
    </contour>
  </outline>
</glyph>
<glyph name="F" format="2">
  <advance width="653"/>
  <unicode hex="0046"/>
  <outline>
    <contour>
      <point x="217" y="287" type="curve"/>
      <point x="217" y="441" type="line"/>
      <point x="303" y="438"/>
      <point x="419" y="432"/>
      <point x="503" y="415" type="curve"/>
      <point x="503" y="316" type="line"/>
      <point x="419" y="299"/>
      <point x="300" y="290"/>
    </contour>
    <contour>
      <point x="267" y="137" type="line"/>
      <point x="206" y="185" type="line"/>
      <point x="363" y="185" type="line"/>
      <point x="418" y="-2" type="line"/>
      <point x="38" y="-2" type="line"/>
      <point x="71" y="49"/>
      <point x="103" y="116"/>
      <point x="103" y="213" type="curve" smooth="yes"/>
      <point x="103" y="218" type="line"/>
      <point x="103" y="604" type="line"/>
      <point x="147" y="558" type="line"/>
      <point x="55" y="563" type="line"/>
      <point x="7" y="750" type="line"/>
      <point x="604" y="750" type="line"/>
      <point x="604" y="494" type="line"/>
      <point x="500" y="598"/>
      <point x="332" y="588"/>
      <point x="236" y="578" type="curve"/>
      <point x="267" y="657" type="line"/>
    </contour>
  </outline>
</glyph>
<glyph name="G" format="2">
  <advance width="765"/>
  <unicode hex="0047"/>
  <outline>
    <contour>
      <point x="656" y="206" type="curve"/>
      <point x="725" y="76.0" type="line"/>
      <point x="653" y="15.0"/>
      <point x="543" y="-19"/>
      <point x="412" y="-19" type="curve"/>
      <point x="176" y="-19"/>
      <point x="50" y="91"/>
      <point x="50" y="374" type="curve" smooth="yes"/>
      <point x="50" y="656"/>
      <point x="186" y="768"/>
      <point x="422" y="768" type="curve"/>
      <point x="546" y="768"/>
      <point x="657" y="725"/>
      <point x="707" y="701" type="curve"/>
      <point x="667" y="424" type="line"/>
      <point x="584" y="424" type="line"/>
      <point x="584" y="514"/>
      <point x="538" y="597"/>
      <point x="442" y="597" type="curve"/>
      <point x="332" y="597"/>
      <point x="277" y="552"/>
      <point x="277" y="374" type="curve" smooth="yes"/>
      <point x="277" y="196"/>
      <point x="332" y="142"/>
      <point x="442" y="142" type="curve"/>
      <point x="535" y="142"/>
      <point x="603" y="166"/>
    </contour>
    <contour>
      <point x="428" y="279" type="line"/>
      <point x="428" y="360" type="line"/>
      <point x="725" y="360" type="line"/>
      <point x="725" y="76.0" type="line"/>
      <point x="555" y="106" type="line"/>
      <point x="555" y="242" type="line"/>
    </contour>
  </outline>
</glyph>
<glyph name="H" format="2">
  <advance width="903"/>
  <unicode hex="0048"/>
  <outline>
    <contour>
      <point x="263" y="296" type="line"/>
      <point x="263" y="458" type="line"/>
      <point x="637" y="458" type="line"/>
      <point x="637" y="296" type="line"/>
    </contour>
    <contour>
      <point x="830" y="0" type="line"/>
      <point x="502" y="0" type="line"/>
      <point x="535" y="51"/>
      <point x="567" y="118"/>
      <point x="567" y="215" type="curve" smooth="yes"/>
      <point x="567" y="750" type="line"/>
      <point x="830" y="750" type="line"/>
      <point x="830" y="557" type="line"/>
      <point x="722" y="557" type="line"/>
      <point x="767" y="602" type="line"/>
      <point x="767" y="143" type="line"/>
      <point x="710" y="235" type="line"/>
      <point x="830" y="193" type="line"/>
    </contour>
    <contour>
      <point x="75" y="750" type="line"/>
      <point x="403" y="750" type="line"/>
      <point x="370" y="699"/>
      <point x="338" y="632"/>
      <point x="338" y="535" type="curve" smooth="yes"/>
      <point x="338" y="0" type="line"/>
      <point x="75" y="0" type="line"/>
      <point x="75" y="193" type="line"/>
      <point x="183" y="235" type="line"/>
      <point x="138" y="143" type="line"/>
      <point x="138" y="607" type="line"/>
      <point x="195" y="557" type="line"/>
      <point x="75" y="557" type="line"/>
    </contour>
  </outline>
</glyph>
<glyph name="I" format="2">
  <advance width="476"/>
  <unicode hex="0049"/>
  <outline>
    <contour>
      <point x="401" y="0" type="line"/>
      <point x="138" y="0" type="line"/>
      <point x="138" y="750" type="line"/>
      <point x="401" y="750" type="line"/>
      <point x="401" y="557" type="line"/>
      <point x="293" y="557" type="line"/>
      <point x="338" y="602" type="line"/>
      <point x="338" y="143" type="line"/>
      <point x="281" y="235" type="line"/>
      <point x="401" y="193" type="line"/>
    </contour>
    <contour>
      <point x="75" y="0" type="line"/>
      <point x="75" y="193" type="line"/>
      <point x="195" y="235" type="line"/>
      <point x="138" y="143" type="line"/>
      <point x="138" y="602" type="line"/>
      <point x="183" y="557" type="line"/>
      <point x="75" y="557" type="line"/>
      <point x="75" y="750" type="line"/>
      <point x="338" y="750" type="line"/>
      <point x="338" y="0" type="line"/>
    </contour>
  </outline>
</glyph>
<glyph name="L" format="2">
  <advance width="653"/>
  <unicode hex="004C"/>
  <outline>
    <contour>
      <point x="98" y="629" type="curve"/>
      <point x="139" y="583" type="line"/>
      <point x="47" y="588" type="line"/>
      <point x="-1" y="750" type="line"/>
      <point x="346" y="750" type="line"/>
      <point x="299" y="581" type="line"/>
      <point x="300" y="98" type="line"/>
      <point x="247" y="170" type="line"/>
      <point x="540" y="170" type="line"/>
      <point x="437" y="95" type="line"/>
      <point x="504" y="303" type="line"/>
      <point x="588" y="303" type="line"/>
      <point x="588" y="0" type="line"/>
      <point x="33" y="0" type="line"/>
      <point x="67" y="51"/>
      <point x="98" y="121"/>
      <point x="98" y="218" type="curve" smooth="yes"/>
      <point x="98" y="218"/>
      <point x="98" y="629"/>
    </contour>
  </outline>
</glyph>
<glyph name="N" format="2">
  <advance width="879"/>
  <unicode hex="004E"/>
  <outline>
    <contour>
      <point x="10.2945" y="750" type="line"/>
      <point x="393.295" y="750" type="line"/>
      <point x="607.295" y="256.456" type="line"/>
      <point x="627.295" y="256.456" type="line"/>
      <point x="627.295" y="592.26" type="line" smooth="yes"/>
      <point x="627.295" y="658.363"/>
      <point x="559.295" y="749.032"/>
      <point x="559.295" y="749.032" type="curve"/>
      <point x="870.295" y="749.032" type="line"/>
      <point x="807.295" y="592.26" type="line"/>
      <point x="807.295" y="592.26"/>
      <point x="807.295" y="230.986"/>
      <point x="807.295" y="0.0071" type="curve"/>
      <point x="548.295" y="0.0071" type="line"/>
      <point x="302.295" y="576.195" type="line"/>
      <point x="281.295" y="576.195" type="line"/>
      <point x="281.295" y="432.991"/>
      <point x="281.105" y="132.924"/>
      <point x="281.105" y="132.924" type="curve"/>
      <point x="281.105" y="132.924"/>
      <point x="237.924" y="186.721"/>
      <point x="237.924" y="186.721" type="curve"/>
      <point x="336.295" y="186.909" type="line"/>
      <point x="392.295" y="0.0071" type="line"/>
      <point x="32.2945" y="0.0071" type="line"/>
      <point x="101.295" y="108.393" type="line"/>
      <point x="101.295" y="615.674" type="line"/>
      <point x="137.726" y="574.711" type="line"/>
      <point x="55.2945" y="574.711" type="line"/>
    </contour>
  </outline>
</glyph>
<glyph name="O" format="2">
  <advance width="883"/>
  <unicode hex="004F"/>
  <outline>
    <contour>
      <point x="440" y="-19" type="curve" smooth="yes"/>
      <point x="163" y="-19"/>
      <point x="80" y="63"/>
      <point x="80" y="374" type="curve" smooth="yes"/>
      <point x="80" y="680"/>
      <point x="163" y="768"/>
      <point x="440" y="768" type="curve" smooth="yes"/>
      <point x="718" y="768"/>
      <point x="803" y="683"/>
      <point x="803" y="374" type="curve" smooth="yes"/>
      <point x="803" y="65"/>
      <point x="723" y="-19"/>
    </contour>
    <contour>
      <point x="308" y="196"/>
      <point x="333" y="152"/>
      <point x="441" y="152" type="curve" smooth="yes"/>
      <point x="551" y="152"/>
      <point x="576" y="196"/>
      <point x="576" y="374" type="curve" smooth="yes"/>
      <point x="576" y="552"/>
      <point x="551" y="597"/>
      <point x="441" y="597" type="curve" smooth="yes"/>
      <point x="333" y="597"/>
      <point x="308" y="552"/>
      <point x="308" y="374" type="curve" smooth="yes"/>
    </contour>
  </outline>
</glyph>
<glyph name="P" format="2">
  <advance width="706"/>
  <unicode hex="0050"/>
  <guideline x="436" y="308" angle="0" identifier="HI2wqkL0jq"/>
  <outline>
    <contour>
      <point x="548" y="393" type="curve"/>
      <point x="478" y="318" type="line"/>
      <point x="478" y="429"/>
      <point x="481" y="507"/>
      <point x="481" y="623" type="curve"/>
      <point x="481" y="623"/>
      <point x="522" y="592"/>
      <point x="522" y="592" type="curve"/>
      <point x="426" y="634"/>
      <point x="317" y="633"/>
      <point x="235" y="574" type="curve"/>
      <point x="206" y="750" type="line"/>
      <point x="308" y="750"/>
      <point x="315" y="750"/>
      <point x="425" y="750" type="curve" smooth="yes"/>
      <point x="574" y="750"/>
      <point x="699" y="687"/>
      <point x="699" y="495" type="curve" smooth="yes"/>
      <point x="699" y="313"/>
      <point x="597" y="250"/>
      <point x="484" y="250" type="curve"/>
      <point x="371" y="250"/>
      <point x="295" y="274"/>
      <point x="295" y="396" type="curve"/>
      <point x="331" y="387" type="line"/>
      <point x="228" y="383" type="line"/>
      <point x="228" y="383"/>
      <point x="248" y="503"/>
      <point x="248" y="503" type="curve"/>
      <point x="321" y="427"/>
      <point x="445" y="385"/>
    </contour>
    <contour>
      <point x="235" y="727" type="move"/>
    </contour>
    <contour>
      <point x="208" y="187" type="line"/>
      <point x="365" y="187" type="line"/>
      <point x="420" y="0" type="line"/>
      <point x="40" y="0" type="line"/>
      <point x="74" y="51"/>
      <point x="105" y="121"/>
      <point x="105" y="218" type="curve" smooth="yes"/>
      <point x="105" y="218"/>
      <point x="105" y="629"/>
      <point x="105" y="629" type="curve"/>
      <point x="146" y="583" type="line"/>
      <point x="54" y="588" type="line"/>
      <point x="6" y="750" type="line"/>
      <point x="287" y="750" type="line"/>
      <point x="307" y="98" type="line"/>
    </contour>
  </outline>
</glyph>
<glyph name="Q" format="2">
  <advance width="883"/>
  <unicode hex="0051"/>
  <outline>
    <contour>
      <point x="385" y="-19" type="curve" smooth="yes"/>
      <point x="108" y="-19"/>
      <point x="25" y="63"/>
      <point x="25" y="374" type="curve" smooth="yes"/>
      <point x="25" y="680"/>
      <point x="108" y="768"/>
      <point x="385" y="768" type="curve" smooth="yes"/>
      <point x="663" y="768"/>
      <point x="748" y="683"/>
      <point x="748" y="374" type="curve" smooth="yes"/>
      <point x="748" y="65"/>
      <point x="668" y="-19"/>
    </contour>
    <contour>
      <point x="253" y="196"/>
      <point x="278" y="152"/>
      <point x="386" y="152" type="curve" smooth="yes"/>
      <point x="496" y="152"/>
      <point x="521" y="196"/>
      <point x="521" y="374" type="curve" smooth="yes"/>
      <point x="521" y="552"/>
      <point x="496" y="597"/>
      <point x="386" y="597" type="curve" smooth="yes"/>
      <point x="278" y="597"/>
      <point x="253" y="552"/>
      <point x="253" y="374" type="curve" smooth="yes"/>
    </contour>
    <contour>
      <point x="719" y="147" type="line"/>
      <point x="853" y="168" type="line"/>
      <point x="853" y="-73" type="line"/>
      <point x="606" y="-38" type="line"/>
      <point x="456" y="-17" type="line"/>
      <point x="456" y="50" type="line"/>
      <point x="622" y="147" type="line"/>
    </contour>
  </outline>
</glyph>
<glyph name="T" format="2">
  <advance width="692"/>
  <unicode hex="0054"/>
  <outline>
    <contour>
      <point x="193" y="0" type="curve"/>
      <point x="500" y="0" type="line"/>
      <point x="458" y="50"/>
      <point x="428" y="144"/>
      <point x="428" y="222" type="curve"/>
      <point x="428" y="232" type="line"/>
      <point x="428" y="661" type="line"/>
      <point x="265" y="661" type="line"/>
      <point x="265" y="232" type="line"/>
      <point x="265" y="222" type="line"/>
      <point x="265" y="143"/>
      <point x="235" y="49"/>
    </contour>
    <contour>
      <point x="682" y="750" type="line"/>
      <point x="10" y="750" type="line"/>
      <point x="32" y="455" type="line"/>
      <point x="112" y="455" type="line"/>
      <point x="156" y="678" type="line"/>
      <point x="97" y="606" type="line"/>
      <point x="596" y="606" type="line"/>
      <point x="537" y="678" type="line"/>
      <point x="581" y="455" type="line"/>
      <point x="661" y="455" type="line"/>
    </contour>
  </outline>
</glyph>
<glyph name="a" format="2">
  <advance width="684"/>
  <unicode hex="0061"/>
  <outline>
    <contour>
      <point x="370" y="307" type="curve" smooth="yes"/>
      <point x="370" y="238"/>
      <point x="369" y="2"/>
      <point x="369" y="2" type="curve"/>
      <point x="640" y="2" type="line"/>
      <point x="640" y="113" type="line"/>
      <point x="521" y="160" type="line"/>
      <point x="556" y="95" type="line"/>
      <point x="556" y="335" type="line" smooth="yes"/>
      <point x="556" y="490"/>
      <point x="465" y="560"/>
      <point x="312" y="560" type="curve" smooth="yes"/>
      <point x="220" y="560"/>
      <point x="161" y="543"/>
      <point x="102" y="504" type="curve"/>
      <point x="103" y="374" type="line"/>
      <point x="164" y="413"/>
      <point x="224" y="422"/>
      <point x="272" y="422" type="curve" smooth="yes"/>
      <point x="346" y="422"/>
      <point x="370" y="393"/>
    </contour>
    <contour>
      <point x="172" y="112" type="curve"/>
      <point x="172" y="99"/>
      <point x="221" y="49"/>
      <point x="250" y="49" type="curve"/>
      <point x="202" y="119"/>
      <point x="199" y="163"/>
      <point x="212" y="243" type="curve"/>
      <point x="212" y="243"/>
      <point x="156" y="201"/>
      <point x="156" y="200" type="curve"/>
      <point x="234" y="234"/>
      <point x="342" y="241"/>
      <point x="416" y="201" type="curve"/>
      <point x="444" y="203" type="line"/>
      <point x="444" y="295"/>
      <point x="358" y="334"/>
      <point x="252" y="334" type="curve" smooth="yes"/>
      <point x="119" y="334"/>
      <point x="22" y="290"/>
      <point x="22" y="171" type="curve" smooth="yes"/>
      <point x="22" y="49"/>
      <point x="65" y="-19"/>
      <point x="191" y="-19" type="curve" smooth="yes"/>
      <point x="303" y="-19"/>
      <point x="349" y="54"/>
      <point x="349" y="99" type="curve"/>
      <point x="312" y="82" type="line"/>
      <point x="420" y="88" type="line"/>
      <point x="420" y="88"/>
      <point x="420" y="228"/>
      <point x="420" y="228" type="curve"/>
      <point x="356" y="160"/>
      <point x="275" y="114"/>
    </contour>
  </outline>
</glyph>
<glyph name="b" format="2">
  <advance width="776"/>
  <unicode hex="0062"/>
  <guideline x="31" y="-37" angle="0"/>
  <guideline x="31" y="557" angle="0"/>
  <guideline x="31" y="533" angle="0"/>
  <guideline x="31" y="533" angle="0"/>
  <outline>
    <contour>
      <point x="190" y="108" type="curve"/>
      <point x="248" y="175" type="line"/>
      <point x="322" y="151"/>
      <point x="426" y="95"/>
      <point x="557" y="171" type="curve"/>
      <point x="489" y="109" type="line"/>
      <point x="489" y="406" type="line"/>
      <point x="551" y="352" type="line"/>
      <point x="456" y="354"/>
      <point x="354" y="338"/>
      <point x="301" y="271" type="curve"/>
      <point x="281" y="389" type="line"/>
      <point x="347" y="389" type="line"/>
      <point x="350" y="509"/>
      <point x="410" y="559"/>
      <point x="513" y="559" type="curve" smooth="yes"/>
      <point x="669" y="559"/>
      <point x="708" y="443"/>
      <point x="708" y="263" type="curve" smooth="yes"/>
      <point x="708" y="38"/>
      <point x="611" y="-18"/>
      <point x="455" y="-18" type="curve" smooth="yes"/>
      <point x="337" y="-18"/>
      <point x="236" y="46"/>
    </contour>
    <contour>
      <point x="305" y="80" type="line"/>
      <point x="125" y="0" type="line"/>
      <point x="125" y="594" type="line"/>
      <point x="170" y="549" type="line"/>
      <point x="65" y="549" type="line"/>
      <point x="65" y="741" type="line"/>
      <point x="305" y="741" type="line"/>
    </contour>
  </outline>
</glyph>
<glyph name="c" format="2">
  <advance width="656"/>
  <unicode hex="0063"/>
  <outline>
    <contour>
      <point x="469" y="422" type="line"/>
      <point x="502" y="381" type="line"/>
      <point x="365" y="437"/>
      <point x="283" y="394"/>
      <point x="199" y="346" type="curve"/>
      <point x="288" y="457" type="line"/>
      <point x="288" y="87" type="line"/>
      <point x="197" y="163" type="line"/>
      <point x="284" y="116"/>
      <point x="390" y="113"/>
      <point x="538" y="194" type="curve"/>
      <point x="636" y="87" type="line"/>
      <point x="547" y="15"/>
      <point x="477" y="-18"/>
      <point x="368" y="-18" type="curve" smooth="yes"/>
      <point x="151" y="-18"/>
      <point x="68" y="64"/>
      <point x="68" y="270" type="curve" smooth="yes"/>
      <point x="68" y="471"/>
      <point x="151" y="559"/>
      <point x="368" y="559" type="curve"/>
      <point x="475" y="559"/>
      <point x="534" y="544"/>
      <point x="617" y="487" type="curve"/>
      <point x="600" y="290.0" type="line"/>
      <point x="492" y="290.0" type="line"/>
    </contour>
  </outline>
</glyph>
<glyph name="d" format="2">
  <advance width="663"/>
  <unicode hex="0064"/>
  <guideline x="736" y="741" angle="0" identifier="GF5iQpq39o"/>
  <outline>
    <contour>
      <point x="558" y="108" type="line"/>
      <point x="512" y="46"/>
      <point x="411" y="-18"/>
      <point x="293" y="-18" type="curve" smooth="yes"/>
      <point x="137" y="-18"/>
      <point x="40" y="38"/>
      <point x="40" y="263" type="curve" smooth="yes"/>
      <point x="40" y="443"/>
      <point x="79" y="559"/>
      <point x="235" y="559" type="curve" smooth="yes"/>
      <point x="338" y="559"/>
      <point x="401" y="511"/>
      <point x="401" y="389" type="curve"/>
      <point x="467" y="389" type="line"/>
      <point x="447" y="271" type="line"/>
      <point x="394" y="338"/>
      <point x="292" y="354"/>
      <point x="197" y="352" type="curve"/>
      <point x="259" y="406" type="line"/>
      <point x="259" y="109" type="line"/>
      <point x="191" y="171" type="line"/>
      <point x="322" y="95"/>
      <point x="427" y="148"/>
      <point x="500" y="175" type="curve"/>
    </contour>
    <contour>
      <point x="443" y="80" type="line"/>
      <point x="443" y="608" type="line"/>
      <point x="383" y="608" type="line"/>
      <point x="383" y="790" type="line"/>
      <point x="681" y="790" type="line"/>
      <point x="640" y="741"/>
      <point x="623" y="692"/>
      <point x="623" y="587" type="curve"/>
      <point x="623" y="0" type="line"/>
    </contour>
  </outline>
</glyph>
<glyph name="e" format="2">
  <advance width="683"/>
  <unicode hex="0065"/>
  <outline>
    <contour>
      <point x="196" y="326" type="curve"/>
      <point x="84" y="365" type="line"/>
      <point x="127" y="230" type="line"/>
      <point x="246" y="230"/>
      <point x="493" y="231"/>
      <point x="604" y="231" type="curve"/>
      <point x="604" y="465"/>
      <point x="524" y="558"/>
      <point x="333" y="558" type="curve" smooth="yes"/>
      <point x="105" y="558"/>
      <point x="48" y="429"/>
      <point x="48" y="270" type="curve"/>
      <point x="48" y="74"/>
      <point x="137" y="-17"/>
      <point x="291" y="-17" type="curve" smooth="yes"/>
      <point x="380" y="-17"/>
      <point x="508" y="-2"/>
      <point x="599" y="92" type="curve"/>
      <point x="544" y="176" type="line"/>
      <point x="355" y="76"/>
      <point x="226" y="110"/>
      <point x="226" y="236" type="curve"/>
      <point x="225" y="437" type="line"/>
      <point x="202" y="382" type="line"/>
      <point x="265" y="434"/>
      <point x="379" y="441"/>
      <point x="469" y="424" type="curve"/>
      <point x="469" y="437"/>
      <point x="414" y="492"/>
      <point x="385" y="492" type="curve"/>
      <point x="431" y="422"/>
      <point x="435" y="367"/>
      <point x="420" y="288" type="curve"/>
      <point x="420" y="288"/>
      <point x="481" y="327"/>
      <point x="481" y="327" type="curve"/>
      <point x="402" y="325"/>
      <point x="208" y="326"/>
    </contour>
  </outline>
</glyph>
<glyph name="h" format="2">
  <advance width="749"/>
  <unicode hex="0068"/>
  <guideline x="0" y="110" angle="0"/>
  <guideline x="0" y="140" angle="0"/>
  <outline>
    <contour>
      <point x="23.8862" y="-0.7717" type="line"/>
      <point x="23.8862" y="111.228" type="line"/>
      <point x="115.256" y="155.197" type="line"/>
      <point x="83.8862" y="106.99" type="line"/>
      <point x="83.8862" y="540.228" type="line" smooth="yes"/>
      <point x="83.8862" y="653.836"/>
      <point x="82.1631" y="665.916"/>
      <point x="26.6905" y="740.228" type="curve"/>
      <point x="341.685" y="740.228" type="line"/>
      <point x="341.687" y="651.833" type="line"/>
      <point x="219.887" y="589.228" type="line"/>
      <point x="237.047" y="610.288"/>
      <point x="263.887" y="643.228"/>
      <point x="263.887" y="643.228" type="curve"/>
      <point x="263.887" y="217.228" type="line" smooth="yes"/>
      <point x="263.887" y="79.8849"/>
      <point x="320.887" y="-0.771683"/>
      <point x="320.887" y="-0.771683" type="curve"/>
    </contour>
    <contour>
      <point x="399.341" y="-0.4893" type="line"/>
      <point x="506.414" y="172.51" type="line"/>
      <point x="506.414" y="172.51"/>
      <point x="456.341" y="20.1794"/>
      <point x="456.341" y="20.1794" type="curve"/>
      <point x="456.341" y="20.1794"/>
      <point x="456.341" y="431.466"/>
      <point x="456.341" y="431.466" type="curve"/>
      <point x="456.341" y="431.466"/>
      <point x="492.21" y="387.444"/>
      <point x="492.21" y="387.444" type="curve"/>
      <point x="324.049" y="387.444"/>
      <point x="244.153" y="298.883"/>
      <point x="244.153" y="298.883" type="curve"/>
      <point x="202.341" y="423.511" type="line"/>
      <point x="341.685" y="423.511" type="line"/>
      <point x="300.506" y="393.238" type="line"/>
      <point x="300.506" y="393.238"/>
      <point x="288.721" y="555"/>
      <point x="470.341" y="555" type="curve"/>
      <point x="646.764" y="555"/>
      <point x="636.341" y="374.511"/>
      <point x="636.341" y="374.511" type="curve"/>
      <point x="636.341" y="100.489" type="line"/>
      <point x="581.339" y="158.072" type="line"/>
      <point x="726.341" y="108.511" type="line"/>
      <point x="726.341" y="-0.489296" type="line"/>
    </contour>
  </outline>
</glyph>
<glyph name="i" format="2">
  <advance width="400"/>
  <unicode hex="0069"/>
  <outline>
    <contour>
      <point x="48" y="721" type="curve"/>
      <point x="76" y="787"/>
      <point x="113" y="833"/>
      <point x="178" y="870" type="curve"/>
      <point x="235" y="842"/>
      <point x="279" y="804"/>
      <point x="317" y="748" type="curve"/>
      <point x="283" y="681"/>
      <point x="240" y="636"/>
      <point x="180" y="604" type="curve"/>
      <point x="138" y="630"/>
      <point x="97" y="667"/>
    </contour>
    <contour>
      <point x="45" y="0" type="line"/>
      <point x="365" y="0" type="line"/>
      <point x="365" y="163" type="line"/>
      <point x="258" y="205" type="line"/>
      <point x="300" y="173" type="line"/>
      <point x="300" y="540" type="line"/>
      <point x="45" y="540" type="line"/>
      <point x="45" y="377" type="line"/>
      <point x="165" y="377" type="line"/>
      <point x="120" y="393" type="line"/>
      <point x="120" y="173" type="line"/>
      <point x="162" y="205" type="line"/>
      <point x="45" y="163" type="line"/>
    </contour>
  </outline>
</glyph>
<glyph name="l" format="2">
  <advance width="393"/>
  <unicode hex="006C"/>
  <guideline x="0" y="110" angle="0"/>
  <guideline x="0" y="140" angle="0"/>
  <outline>
    <contour>
      <point x="74" y="0" type="line"/>
      <point x="374" y="0" type="line"/>
      <point x="374" y="109" type="line"/>
      <point x="272" y="160" type="line"/>
      <point x="314" y="89" type="line"/>
      <point x="314" y="741" type="line"/>
      <point x="74" y="741" type="line"/>
      <point x="74" y="604" type="line"/>
      <point x="179" y="604" type="line"/>
      <point x="134" y="650" type="line"/>
      <point x="134" y="89" type="line"/>
      <point x="176" y="160" type="line"/>
      <point x="74" y="109" type="line"/>
    </contour>
  </outline>
</glyph>
<glyph name="m" format="2">
  <advance width="992"/>
  <unicode hex="006D"/>
  <guideline x="-85" y="0" angle="90"/>
  <guideline x="0" y="414" angle="0"/>
  <guideline x="0" y="375" angle="0"/>
  <outline>
    <contour>
      <point x="25.3394" y="538.562" type="line"/>
      <point x="134.149" y="538.562"/>
      <point x="320.339" y="538.562"/>
      <point x="320.339" y="538.562" type="curve"/>
      <point x="256.155" y="492.152"/>
      <point x="268.339" y="395.562"/>
      <point x="268.339" y="395.562" type="curve"/>
      <point x="312.339" y="395.562" type="line"/>
      <point x="312.339" y="395.562"/>
      <point x="300.838" y="559.419"/>
      <point x="453.335" y="559.419" type="curve" smooth="yes"/>
      <point x="606.139" y="559.419"/>
      <point x="590.339" y="395.562"/>
      <point x="590.339" y="395.562" type="curve"/>
      <point x="632.339" y="395.562" type="line"/>
      <point x="632.339" y="395.562"/>
      <point x="637.317" y="560"/>
      <point x="792.302" y="560" type="curve" smooth="yes"/>
      <point x="944.499" y="560"/>
      <point x="951.339" y="374.563"/>
      <point x="951.339" y="374.563" type="curve"/>
      <point x="951.339" y="139.563" type="line"/>
      <point x="1011.34" y="109.563" type="line"/>
      <point x="1011.34" y="-0.4375" type="line"/>
      <point x="712.339" y="-0.4375" type="line"/>
      <point x="781.339" y="109.563" type="line"/>
      <point x="781.339" y="196.143"/>
      <point x="781.339" y="331.563"/>
      <point x="781.339" y="331.563" type="curve"/>
      <point x="621.339" y="331.563"/>
      <point x="590.339" y="260.563"/>
      <point x="590.339" y="260.563" type="curve"/>
      <point x="589.741" y="0.2407" type="line"/>
      <point x="377.339" y="-0.4375" type="line"/>
      <point x="458.483" y="109.559" type="line"/>
      <point x="458.339" y="331.563" type="line"/>
      <point x="300.839" y="331.563"/>
      <point x="269.339" y="259.563"/>
      <point x="269.339" y="259.563" type="curve"/>
      <point x="269" y="0"/>
      <point x="269" y="260"/>
      <point x="269.339" y="-0.4375" type="curve"/>
      <point x="28.3393" y="-0.4375" type="line"/>
      <point x="28.3393" y="109.563" type="line"/>
      <point x="99.366" y="140.299" type="line"/>
      <point x="99.339" y="374.563" type="line"/>
      <point x="26.3393" y="413.563" type="line"/>
    </contour>
  </outline>
</glyph>
<glyph name="n" format="2">
  <advance width="778"/>
  <unicode hex="006E"/>
  <guideline x="452" y="0" angle="0"/>
  <guideline x="48" y="557" angle="0"/>
  <guideline x="452" y="0" angle="0"/>
  <guideline x="48" y="557" angle="0"/>
  <outline>
    <contour>
      <point x="73" y="0" type="line"/>
      <point x="313" y="0" type="line"/>
      <point x="313" y="540" type="line"/>
      <point x="73" y="540" type="line"/>
      <point x="73" y="347" type="line"/>
      <point x="193" y="347" type="line"/>
      <point x="133" y="408" type="line"/>
      <point x="133" y="93" type="line"/>
      <point x="190" y="242" type="line"/>
      <point x="73" y="193" type="line"/>
    </contour>
    <contour>
      <point x="417" y="0" type="line"/>
      <point x="708" y="0" type="line"/>
      <point x="708" y="193" type="line"/>
      <point x="627" y="232" type="line"/>
      <point x="658" y="93" type="line"/>
      <point x="658" y="333" type="line" smooth="yes"/>
      <point x="658" y="515"/>
      <point x="590" y="559"/>
      <point x="502" y="559" type="curve" smooth="yes"/>
      <point x="387" y="559"/>
      <point x="355" y="481"/>
      <point x="355" y="358" type="curve"/>
      <point x="385" y="408" type="line"/>
      <point x="269" y="408" type="line"/>
      <point x="269" y="260" type="line"/>
      <point x="325" y="330"/>
      <point x="402" y="342"/>
      <point x="510" y="342" type="curve"/>
      <point x="478" y="413" type="line"/>
      <point x="478" y="83" type="line"/>
      <point x="533" y="277" type="line"/>
    </contour>
  </outline>
</glyph>
<glyph name="o" format="2">
  <advance width="738"/>
  <unicode hex="006F"/>
  <guideline x="34" y="542" angle="0"/>
  <outline>
    <contour>
      <point x="151" y="-18"/>
      <point x="68" y="64"/>
      <point x="68" y="270" type="curve" smooth="yes"/>
      <point x="68" y="471"/>
      <point x="151" y="559"/>
      <point x="368" y="559" type="curve" smooth="yes"/>
      <point x="585" y="559"/>
      <point x="670" y="474"/>
      <point x="670" y="270" type="curve" smooth="yes"/>
      <point x="670" y="66"/>
      <point x="590" y="-18"/>
      <point x="368" y="-18" type="curve" smooth="yes"/>
    </contour>
    <contour>
      <point x="197" y="163" type="line"/>
      <point x="309" y="102"/>
      <point x="429" y="133"/>
      <point x="539" y="195" type="curve"/>
      <point x="451" y="89" type="line"/>
      <point x="451" y="458" type="line"/>
      <point x="540" y="378" type="line"/>
      <point x="432" y="440"/>
      <point x="307" y="407"/>
      <point x="199" y="346" type="curve"/>
      <point x="288" y="457" type="line"/>
      <point x="288" y="87" type="line"/>
    </contour>
  </outline>
</glyph>
<glyph name="p" format="2">
  <advance width="715"/>
  <unicode hex="0070"/>
  <outline>
    <contour>
      <point x="391" y="-250" type="line"/>
      <point x="57" y="-250" type="line"/>
      <point x="57" y="-58" type="line"/>
      <point x="173" y="-58" type="line"/>
      <point x="128" y="-103" type="line"/>
      <point x="128" y="415" type="line"/>
      <point x="154" y="371" type="line"/>
      <point x="53" y="425" type="line"/>
      <point x="53" y="540" type="line"/>
      <point x="354" y="540" type="line"/>
      <point x="316.0" y="498.0"/>
      <point x="295" y="447"/>
      <point x="295" y="397" type="curve"/>
      <point x="308" y="378" type="line"/>
      <point x="308" y="-117" type="line"/>
      <point x="266" y="-55" type="line"/>
      <point x="391" y="-97" type="line"/>
    </contour>
    <contour>
      <point x="280" y="415" type="line"/>
      <point x="341" y="433" type="line"/>
      <point x="341" y="480"/>
      <point x="395" y="559"/>
      <point x="478" y="559" type="curve" smooth="yes"/>
      <point x="616" y="559"/>
      <point x="711" y="503"/>
      <point x="711" y="278" type="curve" smooth="yes"/>
      <point x="711" y="98"/>
      <point x="662" y="-18"/>
      <point x="506" y="-18" type="curve" smooth="yes"/>
      <point x="403" y="-18"/>
      <point x="376" y="16"/>
      <point x="331" y="90" type="curve"/>
      <point x="284" y="90" type="line"/>
      <point x="304" y="179" type="line"/>
      <point x="407" y="119"/>
      <point x="510" y="206"/>
      <point x="554" y="250" type="curve"/>
      <point x="492" y="158" type="line"/>
      <point x="492" y="414" type="line"/>
      <point x="560" y="352" type="line"/>
      <point x="429" y="428"/>
      <point x="358" y="383"/>
      <point x="299" y="345" type="curve"/>
    </contour>
  </outline>
</glyph>
<glyph name="q" format="2">
  <advance width="715"/>
  <unicode hex="0071"/>
  <outline>
    <contour>
      <point x="411" y="-200" type="line"/>
      <point x="411" y="-8" type="line"/>
      <point x="513" y="34" type="line"/>
      <point x="471" y="-28" type="line"/>
      <point x="471" y="479" type="line"/>
      <point x="651" y="559" type="line"/>
      <point x="651" y="-53" type="line"/>
      <point x="606" y="-8" type="line"/>
      <point x="711" y="-8" type="line"/>
      <point x="711" y="-200" type="line"/>
    </contour>
    <contour>
      <point x="586" y="433" type="curve"/>
      <point x="528" y="366" type="line"/>
      <point x="454" y="390"/>
      <point x="350" y="446"/>
      <point x="219" y="370" type="curve"/>
      <point x="287" y="432" type="line"/>
      <point x="287" y="135" type="line"/>
      <point x="225" y="189" type="line"/>
      <point x="320" y="187"/>
      <point x="422" y="203"/>
      <point x="475" y="270" type="curve"/>
      <point x="495" y="152" type="line"/>
      <point x="429" y="152" type="line"/>
      <point x="426" y="32"/>
      <point x="366" y="-18"/>
      <point x="263" y="-18" type="curve" smooth="yes"/>
      <point x="107" y="-18"/>
      <point x="68" y="98"/>
      <point x="68" y="278" type="curve" smooth="yes"/>
      <point x="68" y="503"/>
      <point x="169" y="559"/>
      <point x="321" y="559" type="curve" smooth="yes"/>
      <point x="439" y="559"/>
      <point x="540" y="495"/>
    </contour>
  </outline>
</glyph>
<glyph name="r" format="2">
  <advance width="541"/>
  <unicode hex="0072"/>
  <guideline x="0" y="559" angle="0"/>
  <outline>
    <contour>
      <point x="20.5372" y="540.198" type="curve"/>
      <point x="276.537" y="540.198" type="line"/>
      <point x="276.537" y="418.198" type="line"/>
      <point x="351.777" y="418.198" type="line"/>
      <point x="316.537" y="391.864" type="line"/>
      <point x="316.537" y="391.864"/>
      <point x="287.706" y="560.082"/>
      <point x="425.071" y="560.082" type="curve" smooth="yes"/>
      <point x="596.055" y="560.082"/>
      <point x="532.046" y="337.238"/>
      <point x="532.046" y="337.238" type="curve"/>
      <point x="532.046" y="337.238"/>
      <point x="424.527" y="337.238"/>
      <point x="424.527" y="337.238" type="curve"/>
      <point x="424.527" y="337.238"/>
      <point x="388.652" y="367.713"/>
      <point x="388.652" y="367.713" type="curve" smooth="yes"/>
      <point x="260.104" y="367.713"/>
      <point x="193.585" y="219.731"/>
      <point x="193.585" y="219.731" type="curve"/>
      <point x="193.585" y="219.731"/>
      <point x="274.537" y="401.27"/>
      <point x="274.537" y="401.27" type="curve"/>
      <point x="276.356" y="402.101"/>
      <point x="274.537" y="145.198"/>
      <point x="274.537" y="145.198" type="curve"/>
      <point x="274.537" y="145.198"/>
      <point x="371.421" y="144.675"/>
      <point x="371.421" y="144.675" type="curve" smooth="yes"/>
      <point x="371.421" y="144.675"/>
      <point x="370.537" y="-0.8018"/>
      <point x="370.537" y="-0.8018" type="curve"/>
      <point x="21.5372" y="-0.8018" type="line"/>
      <point x="21.5372" y="108.198" type="line"/>
      <point x="127.405" y="162.075" type="line"/>
      <point x="127.405" y="162.075"/>
      <point x="94.537" y="96.1197"/>
      <point x="94.537" y="96.1197" type="curve"/>
      <point x="94.537" y="96.1197"/>
      <point x="94.537" y="382.198"/>
      <point x="94.537" y="382.198" type="curve"/>
      <point x="94.537" y="458.776"/>
      <point x="20.5372" y="540.198"/>
    </contour>
  </outline>
</glyph>
<glyph name="u" format="2">
  <advance width="666"/>
  <unicode hex="0075"/>
  <guideline x="0" y="557" angle="0"/>
  <guideline x="0" y="-37" angle="0"/>
  <guideline x="0" y="109" angle="0"/>
  <guideline x="0" y="160" angle="0"/>
  <guideline x="0" y="414" angle="0"/>
  <guideline x="0" y="375" angle="0"/>
  <outline>
    <contour>
      <point x="650" y="540" type="line"/>
      <point x="342" y="540" type="line"/>
      <point x="377" y="502"/>
      <point x="408" y="452"/>
      <point x="408" y="370" type="curve" smooth="yes"/>
      <point x="408" y="0" type="line"/>
      <point x="649" y="0" type="line"/>
      <point x="649" y="109" type="line"/>
      <point x="522.67" y="215.247" type="line"/>
      <point x="588" y="93" type="line"/>
      <point x="588" y="459" type="line"/>
      <point x="542" y="414" type="line"/>
      <point x="650" y="414" type="line"/>
    </contour>
    <contour>
      <point x="250" y="540" type="line"/>
      <point x="10" y="540" type="line"/>
      <point x="10" y="415" type="line"/>
      <point x="100.77" y="355.381" type="line"/>
      <point x="70" y="459" type="line"/>
      <point x="70" y="199" type="line" smooth="yes"/>
      <point x="70" y="24"/>
      <point x="138" y="-20"/>
      <point x="226" y="-20" type="curve" smooth="yes"/>
      <point x="336" y="-20"/>
      <point x="368" y="43"/>
      <point x="368" y="159" type="curve"/>
      <point x="338" y="109" type="line"/>
      <point x="454" y="109" type="line"/>
      <point x="454" y="257" type="line"/>
      <point x="398" y="187"/>
      <point x="326" y="175"/>
      <point x="218" y="175" type="curve"/>
      <point x="250" y="104" type="line"/>
    </contour>
  </outline>
</glyph>
<glyph name="Ntilde" format="2">
  <advance width="760"/>
  <unicode hex="00D1"/>
  <outline>
    <contour>
      <point x="89" y="874" type="line"/>
      <point x="135.924" y="789.238" type="line"/>
      <point x="284" y="855" type="line"/>
      <point x="588" y="799" type="line"/>
      <point x="708" y="868" type="line"/>
      <point x="652.74" y="955.552" type="line"/>
      <point x="554.085" y="907.345" type="line"/>
      <point x="276" y="963" type="line"/>
    </contour>
    <component base="N" xOffset="-30"/>
  </outline>
</glyph>
<glyph name="ntilde" format="2">
  <advance width="778"/>
  <unicode hex="00F1"/>
  <guideline x="452" y="0" angle="90"/>
  <guideline x="0" y="559" angle="0"/>
  <guideline x="452" y="0" angle="90"/>
  <outline>
    <contour>
      <point x="94.8791" y="671.132" type="line"/>
      <point x="139.484" y="596.019" type="line"/>
      <point x="280.24" y="647.294" type="line"/>
      <point x="569.214" y="597.669" type="line"/>
      <point x="683.283" y="665.815" type="line"/>
      <point x="630.754" y="743.4" type="line"/>
      <point x="536.975" y="693.681" type="line"/>
      <point x="272.636" y="743" type="line"/>
    </contour>
    <component base="n" xOffset="42"/>
  </outline>
</glyph>
<glyph name="I.2" format="2">
  <advance width="355"/>
  <outline>
    <contour>
      <point x="371" y="194" type="line"/>
      <point x="419" y="0" type="line"/>
      <point x="30" y="0" type="line"/>
      <point x="78" y="194" type="line"/>
      <point x="192" y="183" type="line"/>
      <point x="148" y="149" type="line"/>
      <point x="148" y="616" type="line"/>
      <point x="192" y="559" type="line"/>
      <point x="78" y="570" type="line"/>
      <point x="30" y="750" type="line"/>
      <point x="419" y="750" type="line"/>
      <point x="371" y="570" type="line"/>
      <point x="257" y="559" type="line"/>
      <point x="300" y="622" type="line"/>
      <point x="300" y="149" type="line"/>
      <point x="257" y="183" type="line"/>
    </contour>
  </outline>
</glyph>
<glyph name="I.3" format="2">
  <advance width="370"/>
  <outline>
    <contour>
      <point x="335" y="0" type="line"/>
      <point x="38" y="0" type="line"/>
      <point x="72" y="52"/>
      <point x="103" y="128"/>
      <point x="103" y="218" type="curve"/>
      <point x="103" y="607" type="line"/>
      <point x="148" y="558" type="line"/>
      <point x="80" y="558" type="line"/>
      <point x="23" y="750" type="line"/>
      <point x="320" y="750" type="line"/>
      <point x="282" y="694"/>
      <point x="256" y="629"/>
      <point x="256" y="523" type="curve"/>
      <point x="255" y="144" type="line"/>
      <point x="207" y="188" type="line"/>
      <point x="278" y="192" type="line"/>
    </contour>
  </outline>
</glyph>
<glyph name="L.2" format="2">
  <advance width="653"/>
  <outline>
    <contour>
      <point x="122" y="629" type="curve"/>
      <point x="165" y="583" type="line"/>
      <point x="71" y="588" type="line"/>
      <point x="23" y="750" type="line"/>
      <point x="402" y="750" type="line"/>
      <point x="354" y="570" type="line"/>
      <point x="240" y="559" type="line"/>
      <point x="285" y="622" type="line"/>
      <point x="286" y="70" type="line"/>
      <point x="233" y="142" type="line"/>
      <point x="564" y="142" type="line"/>
      <point x="470" y="67" type="line"/>
      <point x="528" y="250" type="line"/>
      <point x="612" y="250" type="line"/>
      <point x="612" y="0" type="line"/>
      <point x="57" y="0" type="line"/>
      <point x="91" y="51"/>
      <point x="122" y="121"/>
      <point x="122" y="218" type="curve" smooth="yes"/>
      <point x="122" y="218"/>
      <point x="122" y="629"/>
    </contour>
  </outline>
</glyph>
<glyph name="N.2" format="2">
  <advance width="889"/>
  <outline>
    <contour>
      <point x="17.2945" y="750" type="line"/>
      <point x="389.295" y="750" type="line"/>
      <point x="631.295" y="256.456" type="line"/>
      <point x="631.295" y="592.26" type="line" smooth="yes"/>
      <point x="631.295" y="658.363"/>
      <point x="563.295" y="749.032"/>
      <point x="563.295" y="749.032" type="curve"/>
      <point x="874.295" y="749.032" type="line"/>
      <point x="811.295" y="592.26" type="line"/>
      <point x="811.295" y="592.26"/>
      <point x="811.295" y="230.986"/>
      <point x="811.295" y="0.00708771" type="curve"/>
      <point x="576.295" y="0.00708771" type="line"/>
      <point x="288.295" y="576.195" type="line"/>
      <point x="288.295" y="432.991"/>
      <point x="288.105" y="132.924"/>
      <point x="288.105" y="132.924" type="curve"/>
      <point x="288.105" y="132.924"/>
      <point x="244.924" y="186.721"/>
      <point x="244.924" y="186.721" type="curve"/>
      <point x="343.295" y="186.909" type="line"/>
      <point x="399.295" y="0.00713375" type="line"/>
      <point x="39.2945" y="0.00713375" type="line"/>
      <point x="108.295" y="108.393" type="line"/>
      <point x="108.295" y="615.674" type="line"/>
      <point x="144.726" y="574.711" type="line"/>
      <point x="62.2945" y="574.711" type="line"/>
    </contour>
  </outline>
</glyph>
<glyph name="O.2" format="2">
  <advance width="750"/>
  <outline>
    <contour>
      <point x="375" y="760" type="curve"/>
      <point x="157" y="760"/>
      <point x="28" y="592"/>
      <point x="28" y="371" type="curve"/>
      <point x="28" y="149"/>
      <point x="181" y="-12"/>
      <point x="375" y="-10" type="curve"/>
      <point x="594" y="-10"/>
      <point x="721" y="158"/>
      <point x="721" y="379" type="curve"/>
      <point x="721" y="600"/>
      <point x="569" y="760"/>
    </contour>
    <contour>
      <point x="375" y="122" type="curve"/>
      <point x="328" y="122"/>
      <point x="144" y="300"/>
      <point x="144" y="373" type="curve"/>
      <point x="144" y="445"/>
      <point x="328" y="629"/>
      <point x="375" y="629" type="curve"/>
      <point x="422" y="629"/>
      <point x="605" y="445"/>
      <point x="605" y="378" type="curve"/>
      <point x="605" y="311"/>
      <point x="422" y="122"/>
    </contour>
  </outline>
</glyph>
<glyph name="O.3" format="2">
  <advance width="723"/>
  <outline>
    <contour>
      <point x="8" y="372" type="curve"/>
      <point x="8" y="594"/>
      <point x="143" y="760"/>
      <point x="375" y="760" type="curve"/>
      <point x="580" y="760"/>
      <point x="741" y="602"/>
      <point x="741" y="379" type="curve"/>
      <point x="741" y="158"/>
      <point x="607" y="-7"/>
      <point x="375" y="-7" type="curve"/>
      <point x="169" y="-10"/>
      <point x="8" y="150"/>
    </contour>
    <contour>
      <point x="330" y="686" type="curve"/>
      <point x="410" y="686" type="line"/>
      <point x="278" y="604"/>
      <point x="174" y="487"/>
      <point x="96" y="332" type="curve"/>
      <point x="96" y="423" type="line"/>
      <point x="155" y="296"/>
      <point x="288" y="155"/>
      <point x="406" y="68" type="curve"/>
      <point x="327" y="68" type="line"/>
      <point x="464" y="166"/>
      <point x="559" y="273"/>
      <point x="630" y="411" type="curve"/>
      <point x="630" y="327" type="line"/>
      <point x="556" y="491"/>
      <point x="469" y="583"/>
    </contour>
  </outline>
</glyph>
<glyph name="O.alt" format="2">
  <advance width="923"/>
  <outline>
    <contour>
      <point x="168" y="-19"/>
      <point x="85" y="63"/>
      <point x="85" y="374" type="curve" smooth="yes"/>
      <point x="85" y="680"/>
      <point x="168" y="768"/>
      <point x="460" y="768" type="curve" smooth="yes"/>
      <point x="753" y="768"/>
      <point x="838" y="683"/>
      <point x="838" y="374" type="curve" smooth="yes"/>
      <point x="838" y="65"/>
      <point x="758" y="-19"/>
      <point x="460" y="-19" type="curve" smooth="yes"/>
    </contour>
    <contour>
      <point x="224" y="182" type="line"/>
      <point x="336" y="121"/>
      <point x="586" y="152"/>
      <point x="696" y="214" type="curve"/>
      <point x="583" y="88" type="line"/>
      <point x="583" y="667" type="line"/>
      <point x="697" y="567" type="line"/>
      <point x="589" y="629"/>
      <point x="334" y="596"/>
      <point x="226" y="535" type="curve"/>
      <point x="340" y="666" type="line"/>
      <point x="340" y="86" type="line"/>
    </contour>
  </outline>
</glyph>
<glyph name="Q.2" format="2">
  <advance width="770"/>
  <outline>
    <contour>
      <point x="247" y="17" type="line"/>
      <point x="112" y="70"/>
      <point x="18" y="203"/>
      <point x="18" y="372" type="curve"/>
      <point x="18" y="594"/>
      <point x="153" y="760"/>
      <point x="385" y="760" type="curve"/>
      <point x="590" y="760"/>
      <point x="751" y="602"/>
      <point x="751" y="379" type="curve"/>
      <point x="751" y="158"/>
      <point x="617" y="-7"/>
      <point x="385" y="-7" type="curve"/>
      <point x="300" y="13" type="line"/>
      <point x="584" y="11" type="line"/>
      <point x="699" y="-36" type="line"/>
      <point x="698" y="-148" type="line"/>
      <point x="188" y="-148" type="line"/>
      <point x="187" y="-85" type="line"/>
      <point x="274" y="15" type="line"/>
      <point x="428" y="103"/>
      <point x="573" y="259"/>
      <point x="640" y="411" type="curve"/>
      <point x="640" y="327" type="line"/>
      <point x="566" y="491"/>
      <point x="479" y="583"/>
      <point x="340" y="686" type="curve"/>
      <point x="420" y="686" type="line"/>
      <point x="288" y="604"/>
      <point x="184" y="487"/>
      <point x="106" y="332" type="curve"/>
      <point x="106" y="423" type="line"/>
      <point x="153" y="322"/>
      <point x="252" y="208"/>
      <point x="347" y="124" type="curve"/>
      <point x="347" y="123" type="line"/>
    </contour>
  </outline>
</glyph>
<glyph name="a.2" format="2">
  <advance width="692"/>
  <outline>
    <contour>
      <point x="384" y="307" type="line"/>
      <point x="384" y="238"/>
      <point x="383" y="2"/>
      <point x="383" y="2" type="curve"/>
      <point x="624" y="2" type="line"/>
      <point x="624" y="113" type="line"/>
      <point x="509" y="160" type="line"/>
      <point x="540" y="95" type="line"/>
      <point x="540" y="335" type="line" smooth="yes"/>
      <point x="540" y="500"/>
      <point x="491" y="553"/>
      <point x="382" y="553" type="curve" smooth="yes"/>
      <point x="290" y="553"/>
      <point x="247" y="514"/>
      <point x="247" y="419" type="curve"/>
      <point x="277" y="452" type="line"/>
      <point x="198" y="444" type="line"/>
      <point x="232" y="417" type="line"/>
      <point x="218" y="532" type="line"/>
      <point x="100" y="512" type="line"/>
      <point x="120" y="338" type="line"/>
      <point x="176" y="349" type="line"/>
      <point x="231" y="396"/>
      <point x="321" y="414"/>
      <point x="384" y="401" type="curve"/>
    </contour>
    <contour>
      <point x="202" y="78" type="curve"/>
      <point x="202" y="65"/>
      <point x="236" y="49"/>
      <point x="265" y="49" type="curve"/>
      <point x="217" y="119"/>
      <point x="214" y="151"/>
      <point x="227" y="231" type="curve"/>
      <point x="227" y="231"/>
      <point x="186" y="211"/>
      <point x="186" y="211" type="curve"/>
      <point x="262" y="237"/>
      <point x="341" y="251"/>
      <point x="415" y="212" type="curve"/>
      <point x="443" y="174" type="line"/>
      <point x="443" y="266"/>
      <point x="396" y="329"/>
      <point x="290" y="329" type="curve" smooth="yes"/>
      <point x="157" y="329"/>
      <point x="65" y="248"/>
      <point x="65" y="157" type="curve" smooth="yes"/>
      <point x="65" y="63"/>
      <point x="114" y="-19"/>
      <point x="221" y="-19" type="curve" smooth="yes"/>
      <point x="304" y="-19"/>
      <point x="371" y="54"/>
      <point x="371" y="99" type="curve"/>
      <point x="322" y="77" type="line"/>
      <point x="425" y="77" type="line"/>
      <point x="425" y="77"/>
      <point x="419" y="190"/>
      <point x="419" y="190" type="curve"/>
      <point x="355" y="122"/>
      <point x="305" y="80"/>
    </contour>
  </outline>
</glyph>
<glyph name="e.2" format="2">
  <advance width="692"/>
  <outline>
    <contour>
      <point x="288" y="313" type="curve"/>
      <point x="216" y="350" type="line"/>
      <point x="259" y="236" type="line"/>
      <point x="382" y="230"/>
      <point x="490" y="247"/>
      <point x="579" y="286" type="curve"/>
      <point x="579" y="481"/>
      <point x="535" y="543"/>
      <point x="408" y="543" type="curve" smooth="yes"/>
      <point x="246" y="543"/>
      <point x="128.0" y="421.0"/>
      <point x="128" y="260" type="curve" smooth="yes"/>
      <point x="128" y="95"/>
      <point x="201" y="2"/>
      <point x="320" y="2" type="curve" smooth="yes"/>
      <point x="409" y="2"/>
      <point x="490" y="24"/>
      <point x="581" y="118" type="curve"/>
      <point x="526" y="162" type="line"/>
      <point x="395" y="104"/>
      <point x="284" y="66"/>
      <point x="284" y="260" type="curve"/>
      <point x="282" y="405" type="line"/>
      <point x="322" y="436"/>
      <point x="367" y="456"/>
      <point x="470" y="461" type="curve"/>
      <point x="470" y="474"/>
      <point x="434" y="490"/>
      <point x="405" y="490" type="curve"/>
      <point x="435" y="420"/>
      <point x="444" y="377"/>
      <point x="432" y="298" type="curve"/>
      <point x="432" y="298"/>
      <point x="475" y="335"/>
      <point x="475" y="335" type="curve"/>
      <point x="406" y="312"/>
      <point x="334" y="304"/>
    </contour>
  </outline>
</glyph>
<glyph name="n.2" format="2">
  <advance width="692"/>
  <outline>
    <contour>
      <point x="31" y="0" type="line"/>
      <point x="271" y="0" type="line"/>
      <point x="271" y="540" type="line"/>
      <point x="31" y="540" type="line"/>
      <point x="31" y="414" type="line"/>
      <point x="151" y="414" type="line"/>
      <point x="91" y="475" type="line"/>
      <point x="91" y="80.7182" type="line"/>
      <point x="136.326" y="162.386" type="line"/>
      <point x="31" y="110" type="line"/>
    </contour>
    <contour>
      <point x="375" y="0" type="line"/>
      <point x="666" y="0" type="line"/>
      <point x="666" y="110" type="line"/>
      <point x="578.502" y="162.556" type="line"/>
      <point x="616" y="61.6583" type="line"/>
      <point x="616" y="333" type="line" smooth="yes"/>
      <point x="616" y="515"/>
      <point x="548" y="559"/>
      <point x="460" y="559" type="curve" smooth="yes"/>
      <point x="345" y="559"/>
      <point x="313" y="481"/>
      <point x="313" y="358" type="curve"/>
      <point x="343" y="412.846" type="line"/>
      <point x="227" y="412.846" type="line"/>
      <point x="227" y="260" type="line"/>
      <point x="283" y="330"/>
      <point x="360" y="342"/>
      <point x="468" y="342" type="curve"/>
      <point x="436" y="413" type="line"/>
      <point x="436" y="59.4171" type="line"/>
      <point x="474.155" y="230" type="line"/>
    </contour>
  </outline>
</glyph>
<glyph name="ntilde.2" format="2">
  <advance width="753"/>
  <outline>
    <contour>
      <point x="40.7506" y="540.386" type="line"/>
      <point x="153.936" y="540.386"/>
      <point x="360.805" y="542.133"/>
      <point x="358.968" y="540.386" type="curve"/>
      <point x="285.085" y="470.121"/>
      <point x="299.066" y="268.023"/>
      <point x="299.066" y="268.023" type="curve"/>
      <point x="298.868" y="270.243"/>
      <point x="297.694" y="0.0986927"/>
      <point x="299.066" y="0.0986927" type="curve"/>
      <point x="44.8818" y="0.0986927" type="line"/>
      <point x="44.8818" y="116.806" type="line"/>
      <point x="147.359" y="116.806" type="line"/>
      <point x="119.244" y="85.2017" type="line"/>
      <point x="119.244" y="430.504" type="line"/>
      <point x="147.359" y="374.439" type="line"/>
      <point x="40.7505" y="425.614" type="line"/>
    </contour>
    <contour>
      <point x="449.745" y="116.806" type="line"/>
      <point x="537.467" y="172.646" type="line"/>
      <point x="537.467" y="172.646"/>
      <point x="509.383" y="117.237"/>
      <point x="509.383" y="117.237" type="curve"/>
      <point x="509.383" y="117.237"/>
      <point x="509.383" y="380.079"/>
      <point x="509.383" y="380.079" type="curve"/>
      <point x="537.425" y="334.174" type="line"/>
      <point x="309.846" y="334.174"/>
      <point x="264.567" y="203.056"/>
      <point x="264.567" y="203.056" type="curve"/>
      <point x="264.567" y="203.056"/>
      <point x="264.609" y="320.367"/>
      <point x="264.609" y="386.828" type="curve"/>
      <point x="264.609" y="386.828"/>
      <point x="377.153" y="386.771"/>
      <point x="377.153" y="386.771" type="curve"/>
      <point x="377.153" y="386.771"/>
      <point x="341.278" y="357.623"/>
      <point x="341.278" y="357.623" type="curve"/>
      <point x="342.322" y="357.623"/>
      <point x="341.704" y="558.274"/>
      <point x="522.318" y="558.274" type="curve" smooth="yes"/>
      <point x="686.451" y="558.274"/>
      <point x="691.325" y="413.075"/>
      <point x="688.91" y="413.075" type="curve"/>
      <point x="688.91" y="59.3699" type="line"/>
      <point x="688.91" y="59.3699"/>
      <point x="664.153" y="154.709"/>
      <point x="664.153" y="154.709" type="curve"/>
      <point x="762.027" y="0.559693" type="line"/>
      <point x="449.746" y="1.13169" type="line"/>
    </contour>
    <contour>
      <point x="126.213" y="616.636" type="curve"/>
      <point x="126.213" y="616.636"/>
      <point x="466.006" y="616.636"/>
      <point x="466.006" y="616.636" type="curve"/>
      <point x="551.286" y="616.636"/>
      <point x="601.064" y="675.505"/>
      <point x="599.237" y="675.505" type="curve"/>
      <point x="599.237" y="675.505"/>
      <point x="599.237" y="786.015"/>
      <point x="599.237" y="786.015" type="curve"/>
      <point x="599.906" y="786.015"/>
      <point x="551.286" y="725.08"/>
      <point x="471.17" y="725.08" type="curve" smooth="yes"/>
      <point x="467.035" y="725.08"/>
      <point x="246.018" y="724.047"/>
      <point x="246.018" y="724.047" type="curve"/>
      <point x="168.027" y="724.047"/>
      <point x="126.213" y="616.636"/>
    </contour>
  </outline>
</glyph>
<glyph name="u.2" format="2">
  <advance width="666"/>
  <guideline x="0" y="-37" angle="0"/>
  <outline>
    <contour>
      <point x="650" y="540" type="line"/>
      <point x="342" y="540" type="line"/>
      <point x="377" y="502"/>
      <point x="408" y="452"/>
      <point x="408" y="370" type="curve" smooth="yes"/>
      <point x="408" y="0" type="line"/>
      <point x="649" y="0" type="line"/>
      <point x="649" y="193" type="line"/>
      <point x="531" y="242" type="line"/>
      <point x="588" y="93" type="line"/>
      <point x="588" y="392" type="line"/>
      <point x="542" y="347" type="line"/>
      <point x="650" y="347" type="line"/>
    </contour>
    <contour>
      <point x="250" y="540" type="line"/>
      <point x="10" y="540" type="line"/>
      <point x="10" y="339" type="line"/>
      <point x="101" y="300" type="line"/>
      <point x="70" y="439" type="line"/>
      <point x="70" y="199" type="line" smooth="yes"/>
      <point x="70" y="24"/>
      <point x="138" y="-20"/>
      <point x="226" y="-20" type="curve" smooth="yes"/>
      <point x="336" y="-20"/>
      <point x="368" y="58"/>
      <point x="368" y="174" type="curve"/>
      <point x="338" y="124" type="line"/>
      <point x="454" y="124" type="line"/>
      <point x="454" y="272" type="line"/>
      <point x="398" y="202"/>
      <point x="326" y="190"/>
      <point x="218" y="190" type="curve"/>
      <point x="250" y="119" type="line"/>
    </contour>
  </outline>
</glyph>
